<?xml version="1.0" encoding="UTF-8"?>
<svg version="1.1" xmlns="http://www.w3.org/2000/svg" width="512" height="512">
<path d="M0 0 C1.0955829 -0.00750224 2.19116581 -0.01500447 3.3199482 -0.02273405 C6.98015142 -0.04401555 10.64003255 -0.04395072 14.30029297 -0.04379272 C16.9288584 -0.05440926 19.55741917 -0.06623994 22.18597412 -0.07919312 C29.31804481 -0.11122842 36.45004293 -0.12111879 43.58217621 -0.12683535 C48.0380499 -0.13059262 52.49390438 -0.13940579 56.94976807 -0.14933395 C69.29604648 -0.17625738 81.64230639 -0.19877988 93.98861694 -0.20121193 C95.17215647 -0.20144529 95.17215647 -0.20144529 96.37960589 -0.20168336 C97.97899373 -0.20197441 99.57838158 -0.20225978 101.17776942 -0.20253952 C101.97165922 -0.20268237 102.76554903 -0.20282523 103.58349609 -0.20297241 C104.37835836 -0.20311208 105.17322062 -0.20325175 105.99216962 -0.20339565 C118.88065905 -0.20653304 131.76881292 -0.24315106 144.65719151 -0.29460867 C157.90124854 -0.34706371 171.14513981 -0.37332484 184.38930321 -0.37276304 C191.82091462 -0.37301554 199.25213982 -0.38422749 206.68365479 -0.42393875 C213.67047449 -0.46108537 220.65650292 -0.46212044 227.64337921 -0.43876648 C230.2072325 -0.43590122 232.77113129 -0.4450012 235.33489227 -0.46694565 C238.83583988 -0.49505397 242.33405583 -0.47997745 245.83496094 -0.45410156 C246.84897539 -0.47244509 247.86298985 -0.49078862 248.90773201 -0.50968802 C255.3748303 -0.40159479 258.64609894 1.00244683 263.22688031 5.58944154 C264.06372739 6.48956236 264.06372739 6.48956236 264.91748047 7.40786743 C265.76616385 8.21410144 266.61484722 9.02033545 267.48924828 9.85100079 C268.23145937 10.59153604 268.97367046 11.33207129 269.7383728 12.095047 C270.60472351 12.95713272 271.47107422 13.81921844 272.36367798 14.70742798 C273.28554901 15.6297522 274.20742004 16.55207642 275.15722656 17.50234985 C276.15987827 18.50200285 277.16273241 19.50145284 278.16577148 20.50071716 C280.86610712 23.19228927 283.56325859 25.88702965 286.25953627 28.58266616 C287.94619445 30.26861043 289.63356397 31.95383938 291.32118607 33.63881874 C297.21338981 39.52180031 303.10303479 45.40732938 308.99023438 51.2953186 C314.47301945 56.77870632 319.96137954 62.25647014 325.45233476 67.73167533 C330.17622576 72.44249968 334.89626247 77.1571623 339.61330473 81.87484437 C342.42674093 84.68853546 345.24170629 87.50065369 348.06055832 90.30891991 C350.7063612 92.94505453 353.34733745 95.58593011 355.98466492 98.23054314 C357.41458379 99.6620081 358.84945189 101.08852381 360.28445435 102.51489258 C361.55860199 103.79533195 361.55860199 103.79533195 362.85848999 105.10163879 C363.9684134 106.21074505 363.9684134 106.21074505 365.10075951 107.3422575 C368.41394234 111.10934309 369.16770092 113.79455716 369.1579895 118.78622437 C369.16211349 120.42261116 369.16211349 120.42261116 369.1663208 122.09205627 C369.15913025 123.28392044 369.1519397 124.47578461 369.14453125 125.70376587 C369.1448233 126.96256058 369.14511536 128.22135529 369.14541626 129.51829529 C369.14598994 132.96635275 369.13423323 136.41427099 369.12026834 139.8622961 C369.1077635 143.46709932 369.10659068 147.07190574 369.10421753 150.67672729 C369.09800203 157.50128176 369.08159028 164.32577212 369.06151855 171.15029836 C369.03916171 178.92048818 369.02816666 186.69068108 369.01812768 194.46089506 C368.99722411 210.4432563 368.96204679 226.4255536 368.91748047 242.40786743 C369.64225586 242.38168335 370.36703125 242.35549927 371.11376953 242.32852173 C374.46477719 242.22323633 377.81543541 242.15912916 381.16748047 242.09536743 C382.87677734 242.03252563 382.87677734 242.03252563 384.62060547 241.96841431 C394.93465573 241.82190791 404.70998213 244.34004504 412.39013672 251.60708618 C418.495736 258.8057595 422.15734987 266.61065397 422.18490601 276.09835815 C422.18943712 276.74571387 422.19396823 277.39306959 422.19863665 278.06004214 C422.21123238 280.21544582 422.20966345 282.37059524 422.20800781 284.52603149 C422.21399617 286.07717715 422.22080242 287.62831983 422.22836304 289.17945862 C422.24600091 293.38420212 422.25071754 297.58886417 422.25199461 301.79364109 C422.25341824 304.42399754 422.2576919 307.05433342 422.26298904 309.68468475 C422.28148337 318.87090871 422.28966058 328.0570747 422.28808594 337.24331665 C422.28688533 345.79003666 422.30797337 354.33650382 422.33957326 362.88315988 C422.36577679 370.23370681 422.3764515 377.58417138 422.37517512 384.93476462 C422.3746666 389.31920247 422.38028841 393.70341561 422.40153122 398.0878067 C422.42098202 402.21491875 422.42099174 406.34159336 422.40649796 410.46872139 C422.40441707 411.97711137 422.40906755 413.48552922 422.42121887 414.99387169 C422.51695211 427.70827853 420.49256849 436.74531628 411.55810547 446.13833618 C404.25740707 452.41304886 395.9557098 455.55891899 386.39794922 455.50552368 C385.37636719 455.50230103 384.35478516 455.49907837 383.30224609 455.49575806 C382.24714844 455.48737915 381.19205078 455.47900024 380.10498047 455.47036743 C379.03054688 455.46585571 377.95611328 455.46134399 376.84912109 455.45669556 C374.20518364 455.44494472 371.56136095 455.4285153 368.91748047 455.40786743 C368.93842773 456.15769897 368.959375 456.90753052 368.98095703 457.68008423 C369.78769808 490.90198697 369.78769808 490.90198697 359.76904297 502.54067993 C351.87761348 510.49870377 343.70733752 512.737138 332.67549253 512.82308394 C331.31598903 512.81867152 329.95648646 512.81396844 328.59698486 512.80900574 C327.13844804 512.81461572 325.67991571 512.82152008 324.22139049 512.82960171 C320.2264234 512.84790552 316.23164512 512.84756094 312.2366457 512.84401858 C307.92292203 512.84340528 303.60925832 512.859975 299.29556274 512.87419128 C290.84901918 512.89908504 282.40253844 512.90735464 273.95596126 512.90902842 C267.08839655 512.91045513 260.22085253 512.91662553 253.35329437 512.92613029 C233.87185196 512.95254306 214.39045908 512.96638951 194.90899864 512.96413887 C193.33441785 512.96395907 193.33441785 512.96395907 191.72802734 512.96377563 C190.15151851 512.96359167 190.15151851 512.96359167 188.543161 512.96340399 C171.51239364 512.96218479 154.48182532 512.99089051 137.45111552 513.03319073 C119.95367811 513.07630642 102.45633772 513.09699995 84.95884585 513.09440941 C75.13950362 513.09341433 65.32037006 513.1016187 55.50107574 513.13394356 C47.14038632 513.16129088 38.78000016 513.16775823 30.41928533 513.14741529 C26.15636983 513.13763542 21.89403579 513.13739027 17.63117599 513.16347504 C13.72241918 513.18714629 9.81470239 513.18270221 5.90597019 513.15662264 C4.49819422 513.15203398 3.09033966 513.15740488 1.68265644 513.17420287 C-10.32067438 513.30785959 -18.90882195 510.18172631 -28.08251953 502.40786743 C-29.77783203 500.43521118 -29.77783203 500.43521118 -31.20751953 498.34536743 C-31.68447266 497.67376587 -32.16142578 497.00216431 -32.65283203 496.31021118 C-37.14086777 487.19925338 -37.48025607 478.2200798 -37.27001953 468.22036743 C-37.25648437 466.9822229 -37.24294922 465.74407837 -37.22900391 464.46841431 C-37.19401564 461.44776033 -37.14492678 458.42805803 -37.08251953 455.40786743 C-37.72688965 455.42357788 -38.37125977 455.43928833 -39.03515625 455.45547485 C-42.00918482 455.51857644 -44.98307182 455.55709329 -47.95751953 455.59536743 C-49.47732422 455.63307251 -49.47732422 455.63307251 -51.02783203 455.67153931 C-62.95939952 455.78626592 -72.22190656 452.71258094 -81.05908203 444.59146118 C-89.91060477 435.26911276 -90.67285359 425.14318659 -90.60009766 412.83560181 C-90.60552749 411.28386277 -90.61265496 409.7321289 -90.62133789 408.18040466 C-90.639472 403.99231223 -90.63254508 399.80461682 -90.61982155 395.61651802 C-90.60964217 391.21830356 -90.61910087 386.82012142 -90.62536621 382.42190552 C-90.63262831 375.03809554 -90.62309279 367.65444598 -90.60400391 360.2706604 C-90.58223789 351.75336967 -90.58929029 343.23646204 -90.61130953 334.71918058 C-90.62950463 327.38551684 -90.63200182 320.05196794 -90.62155485 312.7182889 C-90.61534245 308.34735116 -90.61442184 303.97659306 -90.62770081 299.60566711 C-90.63931879 295.49487708 -90.63112609 291.38457742 -90.60812378 287.27383995 C-90.60286824 285.77191161 -90.60429593 284.26994146 -90.61317444 282.76803017 C-90.67815418 270.65197959 -88.7936515 260.38941148 -80.08251953 251.40786743 C-70.42881811 243.50938445 -61.7836774 241.95891405 -49.58251953 242.22036743 C-48.37853516 242.23390259 -47.17455078 242.24743774 -45.93408203 242.26138306 C-42.9830898 242.29651392 -40.03304541 242.34570748 -37.08251953 242.40786743 C-37.0862067 241.32725949 -37.08989388 240.24665155 -37.09369278 239.13329792 C-37.18259411 212.80800591 -37.24827146 186.48273344 -37.28976822 160.15732288 C-37.31037047 147.42641163 -37.33844647 134.69559969 -37.38427734 121.9647522 C-37.42421655 110.86516889 -37.44996932 99.76565753 -37.45887351 88.66600436 C-37.46407622 82.79187687 -37.47625595 76.91795518 -37.50543976 71.04389381 C-37.5327207 65.50764415 -37.54093893 59.97168381 -37.53495026 54.43537331 C-37.53604483 52.41060816 -37.54392267 50.38583268 -37.55934143 48.36112595 C-37.66029167 34.41309963 -37.53250769 21.42556645 -27.93408203 10.27505493 C-19.83607265 2.10870792 -11.23265325 -0.04390738 0 0 Z M-20.08251953 18.40786743 C-25.54253884 24.9878907 -26.38294744 32.0274924 -26.32302856 40.26002502 C-26.3247406 41.12555496 -26.32645264 41.9910849 -26.32821655 42.88284302 C-26.33151514 45.7792089 -26.32049913 48.6753412 -26.30957031 51.57168579 C-26.3089574 53.68513513 -26.30922504 55.79858488 -26.31030083 57.91203403 C-26.31075188 63.56578317 -26.29916989 69.21944744 -26.28507996 74.87317657 C-26.27368034 80.18068201 -26.27315318 85.48816692 -26.27172852 90.79568481 C-26.26123869 106.3122569 -26.23331634 121.82881324 -26.20751953 137.34536743 C-26.16626953 172.01599243 -26.12501953 206.68661743 -26.08251953 242.40786743 C100.63748047 242.40786743 227.35748047 242.40786743 357.91748047 242.40786743 C357.91748047 200.82786743 357.91748047 159.24786743 357.91748047 116.40786743 C329.64609875 116.19790548 329.64609875 116.19790548 301.37451172 116.01992798 C295.88818359 115.97000122 295.88818359 115.97000122 293.31420898 115.94285583 C291.52876752 115.92677885 289.74326845 115.91644161 287.95776367 115.91075134 C285.24220282 115.90095595 282.52738607 115.87255416 279.81201172 115.84024048 C279.02574905 115.84166644 278.23948639 115.8430924 277.42939758 115.84456158 C270.79666956 115.73249205 265.24811881 114.42775399 260.10498047 109.97036743 C259.38310547 109.12474243 258.66123047 108.27911743 257.91748047 107.40786743 C257.08216797 106.44880493 257.08216797 106.44880493 256.22998047 105.47036743 C252.83963641 100.14268391 252.61528254 94.84431711 252.59863281 88.74038696 C252.58858719 87.89095016 252.57854156 87.04151337 252.56819153 86.16633606 C252.53744018 83.37445721 252.52034683 80.58267391 252.50341797 77.79067993 C252.48469985 75.84868553 252.46512595 73.90669921 252.44473267 71.96472168 C252.39347359 66.86519133 252.35381453 61.76563463 252.31658936 56.66598511 C252.27651069 51.45748408 252.22543597 46.24909207 252.17529297 41.04067993 C252.07860736 30.82981909 251.994179 20.6188966 251.91748047 10.40786743 C219.71258277 10.36222268 187.50769428 10.32683797 155.30277178 10.30573677 C151.49896694 10.30323542 147.69516217 10.30064677 143.89135742 10.29800415 C143.13410206 10.29747953 142.37684671 10.29695491 141.59664422 10.29641439 C129.34218016 10.28771651 117.08773491 10.27194993 104.833282 10.25356184 C92.25507169 10.23484564 79.6768712 10.22374707 67.09864753 10.21969044 C59.33990408 10.21694895 51.58121378 10.20829633 43.82248669 10.1920345 C37.86879153 10.18019307 31.91512351 10.17896044 25.96141624 10.18165207 C23.52216897 10.18110218 21.08291966 10.17712831 18.64368439 10.16945648 C15.30991377 10.15948612 11.97636939 10.16190634 8.64259338 10.1673584 C7.68050809 10.16153272 6.7184228 10.15570703 5.7271834 10.14970481 C-4.35043577 10.1941603 -12.23723544 11.80711636 -20.08251953 18.40786743 Z M-74.58251953 262.40786743 C-79.02737552 269.09393249 -80.20323108 275.47278512 -80.2162323 283.45297241 C-80.22049728 284.64157867 -80.22476227 285.83018494 -80.22915649 287.05480957 C-80.22870331 288.34533234 -80.22825012 289.6358551 -80.2277832 290.96548462 C-80.23077801 292.34914236 -80.23418128 293.73279926 -80.23796082 295.11645508 C-80.24677348 298.86459006 -80.24913781 302.61270218 -80.2497766 306.36084652 C-80.25048879 308.70643029 -80.25262635 311.0520083 -80.25527382 313.39759064 C-80.26451905 321.59177518 -80.26860984 329.78594348 -80.26782227 337.98013306 C-80.26722208 345.59974033 -80.27776434 353.21927666 -80.29356593 360.838866 C-80.30667482 367.39535565 -80.31200474 373.95182222 -80.31136686 380.50832486 C-80.3111128 384.4176211 -80.31391254 388.32685429 -80.32454491 392.23613739 C-80.33428212 395.91664625 -80.33426687 399.59703254 -80.32702827 403.27754593 C-80.3254972 405.25797373 -80.33379024 407.23840166 -80.34246826 409.21881104 C-80.30382612 420.27287598 -79.81897138 429.09262866 -72.08251953 437.40786743 C-66.15873886 443.17575914 -59.14863787 444.86588388 -51.09825325 444.78818417 C-50.3322503 444.79284408 -49.56624735 444.797504 -48.7770322 444.80230513 C-46.21918953 444.81422287 -43.6618812 444.80487232 -41.10403442 444.79554749 C-39.24809347 444.79972181 -37.39215506 444.80519988 -35.53622139 444.8118673 C-30.44284319 444.82632762 -25.34962673 444.8220753 -20.25623965 444.81470048 C-14.76055298 444.80997258 -9.26490149 444.82247534 -3.76922607 444.8327179 C6.99476675 444.84991871 17.75870123 444.85074322 28.52270423 444.84550499 C37.27148093 444.84146439 46.02024039 444.84290554 54.76901627 444.84825325 C56.01395768 444.84900167 57.25889909 444.84975009 58.54156599 444.8505212 C61.07062641 444.85205267 63.59968683 444.85359101 66.12874724 444.85513616 C83.11068395 444.86496571 100.0926144 444.86912786 117.07455254 444.86151028 C117.73845934 444.8612131 118.40236615 444.86091593 119.08639134 444.86060975 C124.47760211 444.85816088 129.8688128 444.85554926 135.26002348 444.85292562 C156.28731161 444.84282404 177.31451988 444.8511775 198.34179688 444.87442017 C221.97358054 444.90049956 245.60532672 444.91328933 269.23712838 444.90623242 C281.74695637 444.90273813 294.25671879 444.90498609 306.76653671 444.92248344 C317.41605524 444.93719401 328.06546201 444.9378558 338.71497832 444.92041253 C344.14810768 444.91189074 349.58103731 444.90978192 355.01415634 444.92506409 C359.98966179 444.93888579 364.96479591 444.93418023 369.94027974 444.91482485 C371.73832129 444.91105682 373.5363924 444.9140099 375.33440767 444.9244365 C390.43035476 445.03466542 390.43035476 445.03466542 403.57373047 438.22427368 C404.18216797 437.48048462 404.79060547 436.73669556 405.41748047 435.97036743 C406.04654297 435.22915649 406.67560547 434.48794556 407.32373047 433.72427368 C413.03949471 425.41680262 412.06613865 415.37213064 412.06274414 405.72085571 C412.06573984 404.33542796 412.06914332 402.95000104 412.07292175 401.5645752 C412.08172344 397.81656657 412.08409823 394.0685808 412.08473754 390.32056284 C412.08545014 387.97514899 412.08758842 385.62974088 412.09023476 383.28432846 C412.09947501 375.09129215 412.10357124 366.89827206 412.1027832 358.70523071 C412.10218254 351.08501469 412.11273544 343.46486948 412.12852687 335.84467137 C412.14162836 329.28732794 412.14696602 322.73000758 412.14632779 316.17265117 C412.1460736 312.26284279 412.14888111 308.35309742 412.15950584 304.44330215 C412.16923105 300.76442466 412.1692359 297.08566985 412.16198921 293.40678787 C412.16045558 291.42498425 412.16875883 289.44318052 412.1774292 287.46139526 C412.13995536 276.76672927 411.25883927 267.69701654 403.91748047 259.40786743 C398.01892848 254.72470706 392.961968 253.25837514 385.48598385 253.27085304 C384.71899663 253.26820122 383.95200941 253.26554939 383.16178015 253.2628172 C380.57064541 253.25510784 377.97955793 253.25456441 375.38841248 253.25396729 C373.52028994 253.24995373 371.65216827 253.24551569 369.78404766 253.24068773 C364.63381797 253.22870429 359.48359765 253.22306968 354.33335674 253.21850657 C348.78510285 253.21255715 343.23686021 253.20094563 337.68861389 253.19021606 C324.28072979 253.16567649 310.87284196 253.15106241 297.46494231 253.138156 C293.67907943 253.13444513 289.89321691 253.13047181 286.1073544 253.12640333 C262.60705995 253.10116735 239.10676453 253.07909403 215.60645962 253.06667519 C210.1612237 253.06375386 204.71598782 253.06078634 199.27075195 253.05776978 C198.59424962 253.05739887 197.91774729 253.05702796 197.22074488 253.05664581 C175.29083101 253.04449244 153.36099744 253.01355223 131.43112127 252.97184825 C108.24652021 252.9278386 85.06196475 252.90214001 61.87731606 252.89675462 C49.23883347 252.89333888 36.60047753 252.88156435 23.96203423 252.84865189 C13.19893961 252.82066941 2.43599761 252.80964418 -8.32713056 252.82084735 C-13.81900987 252.82603859 -19.3105695 252.82311658 -24.8024025 252.79838181 C-29.83181888 252.77591877 -34.86068538 252.77660656 -39.8901112 252.79558568 C-41.70782618 252.7983898 -43.52557821 252.79276431 -45.34323353 252.77777274 C-56.77585205 252.6892586 -66.86714043 252.84742057 -74.58251953 262.40786743 Z M-26.08251953 455.40786743 C-27.43390389 476.48938255 -27.43390389 476.48938255 -19.66064453 494.83755493 C-11.01482063 503.44057772 0.12732779 502.55527552 11.45455933 502.5415802 C12.84012003 502.54344983 14.22568021 502.54575114 15.61123955 502.54844552 C19.40898344 502.55455099 23.20670527 502.55443141 27.00445294 502.55325115 C31.10406663 502.55304683 35.20367329 502.55856886 39.30328369 502.56330872 C47.33118047 502.57160869 55.35906991 502.57436325 63.38697062 502.57492109 C69.91275773 502.57539651 76.43854242 502.57745256 82.96432877 502.58062172 C101.47079153 502.5894261 119.9772485 502.59404137 138.48371337 502.59329125 C139.48102155 502.59325129 140.47832973 502.59321133 141.50585938 502.59317017 C142.50438663 502.59312929 143.50291389 502.5930884 144.53169955 502.59304629 C160.71736668 502.59263976 176.90301055 502.60221156 193.08867095 502.61630853 C209.7125501 502.63067283 226.33641791 502.6375787 242.96030343 502.63671476 C252.29155785 502.63638283 261.62278788 502.63912804 270.95403671 502.64989281 C278.89790541 502.65899845 286.84173865 502.66117248 294.7856103 502.65438338 C298.83733187 502.65111866 302.88898543 502.65105982 306.94070053 502.65973663 C310.65288217 502.6676045 314.36494189 502.6661673 318.07712056 502.6574525 C320.04948962 502.65519371 322.02186246 502.66274387 323.9942168 502.67069215 C334.53304647 502.6297589 343.83644032 501.81548757 351.91748047 494.40786743 C360.84422746 482.1442174 357.91748047 471.92449419 357.91748047 455.40786743 C231.19748047 455.40786743 104.47748047 455.40786743 -26.08251953 455.40786743 Z " fill="#000000" transform="translate(90.08251953125,-0.407867431640625)"/>
<path d="M0 0 C11.55 0 23.1 0 35 0 C36.77084128 4.131963 38.38593425 7.90925818 39.72998047 12.13061523 C40.03394745 13.07948105 40.33791443 14.02834686 40.65109253 15.00596619 C40.96990387 16.01333328 41.28871521 17.02070038 41.6171875 18.05859375 C42.12573776 19.65152 42.12573776 19.65152 42.64456177 21.27662659 C43.72461952 24.66256034 44.79982913 28.05001171 45.875 31.4375 C46.58953619 33.67913452 47.30437716 35.92067191 48.01953125 38.16210938 C51.71762235 49.76293979 55.38777589 61.37213055 59 73 C65.6170335 53.40522083 72.03357974 33.75795885 78.20214844 14.01708984 C78.44917511 13.22828934 78.69620178 12.43948883 78.95071411 11.62678528 C79.41477593 10.14412016 79.87732115 8.66097922 80.33810425 7.17729187 C81.88837931 2.22324138 81.88837931 2.22324138 83 0 C94.88 0 106.76 0 119 0 C119 36.63 119 73.26 119 111 C109.76 111 100.52 111 91 111 C90.81565354 78.16584649 90.81565354 78.16584649 91.64428711 65.2512207 C92.12229718 57.50336761 92.04307952 49.7590994 92 42 C91.81509506 42.55693542 91.63019012 43.11387085 91.43968201 43.68768311 C89.47790897 49.59549007 87.51384988 55.50253376 85.54858398 61.40917969 C84.81983216 63.6003992 84.09162324 65.79179936 83.36401367 67.98339844 C79.64605725 79.18088762 75.90832388 90.37069895 72.03515625 101.515625 C71.74225204 102.36372742 71.44934784 103.21182983 71.14756775 104.08563232 C69.11929087 109.88070913 69.11929087 109.88070913 68 111 C66.65732587 111.08631874 65.31025678 111.10706473 63.96484375 111.09765625 C63.15595703 111.09443359 62.34707031 111.09121094 61.51367188 111.08789062 C60.66353516 111.07951172 59.81339844 111.07113281 58.9375 111.0625 C58.08349609 111.05798828 57.22949219 111.05347656 56.34960938 111.04882812 C54.23304337 111.03700373 52.11651315 111.01906769 50 111 C41.70032721 88.10163959 33.8268963 65.06339014 26 42 C25.94650175 49.02610384 26.060844 55.98910853 26.5 63 C27.39396272 78.97632514 27.0787902 95.00558978 27 111 C18.09 111 9.18 111 0 111 C0 74.37 0 37.74 0 0 Z " fill="#000000" transform="translate(153,295)"/>
<path d="M0 0 C8.58 0 17.16 0 26 0 C26 38.61 26 77.22 26 117 C18.41 117 10.82 117 3 117 C2.34 114.69 1.68 112.38 1 110 C0.56429687 110.40992188 0.12859375 110.81984375 -0.3203125 111.2421875 C-0.91585937 111.78101563 -1.51140625 112.31984375 -2.125 112.875 C-2.70507812 113.40867187 -3.28515625 113.94234375 -3.8828125 114.4921875 C-10.16717202 118.96776457 -17.61880461 118.68601698 -25 118 C-32.19990708 116.33464753 -37.61895033 112.95565676 -42 107 C-50.91299598 92.59099957 -52.20139298 75.36207791 -48.8125 58.9375 C-46.07330569 48.80885128 -40.99644114 40.59786468 -31.875 35.125 C-24.77484821 32.34667973 -16.27139133 31.44319027 -9.03125 34.08203125 C-2.82252865 37.17747135 -2.82252865 37.17747135 -1 39 C-0.67 26.13 -0.34 13.26 0 0 Z M-19 56 C-24.63371389 63.61404969 -24.77389415 73.51496298 -23.69140625 82.5859375 C-22.79613204 87.86250939 -21.60980289 91.87451098 -18 96 C-14.70606963 98.25869511 -12.23904376 98.07940001 -8.4375 97.4375 C-5.34434387 96.83173459 -4.14642342 96.14751119 -1.89672852 93.88110352 C0.45767262 90.30480182 0.51576925 88.16345627 0.53125 83.90625 C0.53699036 82.90253357 0.53699036 82.90253357 0.54284668 81.87854004 C0.54555723 80.46995531 0.53825592 79.06131952 0.52148438 77.65283203 C0.50005675 75.50568661 0.52130912 73.36188603 0.546875 71.21484375 C0.54423156 69.8411385 0.53910625 68.46743533 0.53125 67.09375 C0.52673828 65.85302734 0.52222656 64.61230469 0.51757812 63.33398438 C-0.08792813 59.43361009 -1.26124601 57.78589096 -4 55 C-9.29687364 52.11675332 -13.99398275 52.72683488 -19 56 Z " fill="#000000" transform="translate(333,289)"/>
<path d="M0 0 C0.96568118 -0.00905664 1.93136236 -0.01811328 2.92630661 -0.02744436 C3.98446425 -0.02211644 5.0426219 -0.01678851 6.13284492 -0.01129913 C7.25908968 -0.01739024 8.38533444 -0.02348134 9.54570782 -0.02975702 C13.33357279 -0.0464553 17.12110412 -0.04160134 20.90899849 -0.03681183 C23.61904151 -0.04250948 26.3290642 -0.05263992 29.03909492 -0.06247711 C35.64466454 -0.08354527 42.25014642 -0.08807116 48.85574566 -0.08628923 C54.22460329 -0.08498224 59.59343352 -0.0887825 64.962286 -0.09621429 C66.50805795 -0.09831346 68.05382991 -0.10041107 69.59960186 -0.10250711 C70.75362406 -0.10407241 70.75362406 -0.10407241 71.93095984 -0.10566932 C86.48594819 -0.12457744 101.04088616 -0.12351981 115.59588172 -0.11669999 C128.91269764 -0.11112468 142.22932118 -0.13194837 155.54609214 -0.16506046 C169.21715436 -0.19878984 182.8881244 -0.2139667 196.55922902 -0.20934343 C204.23555054 -0.2070979 211.91169427 -0.21235399 219.58798027 -0.23723602 C226.12343524 -0.25823957 232.65861493 -0.26185083 239.19408117 -0.24293643 C242.52874293 -0.23377194 245.86247071 -0.2353609 249.19716072 -0.25329208 C252.81242494 -0.27139301 256.42631469 -0.25880124 260.04153633 -0.23834991 C261.09523253 -0.25086776 262.14892874 -0.26338561 263.23455513 -0.27628279 C267.78613188 -0.2209392 271.17224504 -0.16731279 274.84605789 2.70710754 C277.81811481 6.06557076 278.29247861 7.91976298 278.21417427 12.38311005 C276.69900799 16.39830068 275.80864897 17.98679358 272.21417427 20.38311005 C270.06478798 20.63726038 270.06478798 20.63726038 267.51736832 20.64317226 C266.06045788 20.65377065 266.06045788 20.65377065 264.57411492 20.66458315 C263.50458042 20.66216806 262.43504591 20.65975298 261.33310127 20.65726471 C260.19883827 20.66250139 259.06457527 20.66773807 257.89594066 20.67313343 C254.07506282 20.68819874 250.25431812 20.68884002 246.43341255 20.68950653 C243.70219466 20.69604004 240.97098845 20.70550094 238.23977852 20.71472931 C230.80597384 20.7375941 223.37219768 20.74550138 215.9383626 20.75055575 C211.29811648 20.7538108 206.65787867 20.76033208 202.01763725 20.76755714 C189.17400886 20.78712435 176.33038819 20.80352807 163.48674393 20.80643368 C162.25354479 20.80671503 162.25354479 20.80671503 160.99543255 20.80700207 C159.32872065 20.80736833 157.66200875 20.80773202 155.99529685 20.80809318 C155.16792191 20.80827599 154.34054696 20.8084588 153.48810005 20.80864716 C152.6597172 20.8088277 151.83133435 20.80900825 150.97784899 20.80919427 C137.55037014 20.8127371 124.12305155 20.83976566 110.6956283 20.87714504 C96.91499934 20.91520123 83.13444997 20.93459095 69.35376728 20.93489319 C61.61429652 20.93547834 53.87501695 20.94400729 46.13559532 20.97289085 C39.54630082 20.99736881 32.95726725 21.00471206 26.36793961 20.98964333 C23.00504884 20.98245943 19.6430944 20.98609872 16.28019142 21.00605392 C12.63607721 21.02636381 8.99330981 21.01604963 5.34921455 20.99784088 C4.28414149 21.01104085 3.21906843 21.02424082 2.12172043 21.03784078 C-5.01181769 20.9561045 -5.01181769 20.9561045 -8.91926575 18.06343937 C-11.26760305 14.69129093 -11.78582573 12.48460681 -11.78582573 8.38311005 C-9.41063753 2.88267421 -6.03040322 0.01136565 0 0 Z " fill="#000000" transform="translate(122.78582572937012,191.61688995361328)"/>
<path d="M0 0 C0.93023424 -0.0060911 1.86046849 -0.01218221 2.81889164 -0.01845789 C5.94344074 -0.03513879 9.06758458 -0.03030477 12.19216919 -0.0255127 C14.42930527 -0.03285008 16.66643756 -0.04143534 18.90356445 -0.05117798 C24.98621448 -0.07343799 31.06872922 -0.07632239 37.15141439 -0.07443047 C42.22610213 -0.07431097 47.30076099 -0.08286678 52.37544072 -0.09120798 C65.03115097 -0.11155979 77.68677702 -0.11258622 90.3424914 -0.10540086 C101.33137458 -0.09982609 112.32002457 -0.12064753 123.30885325 -0.15376133 C134.59332819 -0.18750195 145.87769461 -0.20219157 157.16223156 -0.1980443 C163.49718083 -0.19597414 169.83189793 -0.20149737 176.16680527 -0.22593689 C182.12422927 -0.24815983 188.08116729 -0.24636284 194.03859329 -0.22600937 C196.22593308 -0.22259141 198.41330529 -0.22772203 200.6006012 -0.24199295 C203.58537841 -0.26012418 206.5684963 -0.24748127 209.55322266 -0.22705078 C210.42015334 -0.23956863 211.28708402 -0.25208648 212.18028533 -0.26498365 C216.36090753 -0.20357511 219.08657636 0.10834645 222.42158699 2.75356293 C225.32842462 5.84642617 225.98807293 7.17051125 225.90359497 11.39440918 C224.45364067 15.74427209 223.75474822 17.82697368 219.90359497 20.39440918 C216.8540789 20.59532869 213.8952535 20.67690932 210.8447876 20.66856384 C209.90653511 20.67380052 208.96828262 20.6790372 208.00159824 20.68443257 C204.84405064 20.69948626 201.68666433 20.7001389 198.52908325 20.70080566 C196.2707695 20.70842351 194.01245834 20.71685035 191.75415039 20.72602844 C185.60955522 20.74801659 179.46500981 20.75677808 173.32037973 20.76185489 C169.48417854 20.76549319 165.64799048 20.77173047 161.81179428 20.77885628 C151.1916762 20.79831632 140.57156904 20.81482674 129.95143318 20.81773281 C129.27174577 20.81792038 128.59205835 20.81810795 127.89177435 20.8183012 C126.51386889 20.81866746 125.13596343 20.81903115 123.75805797 20.81939232 C123.07405881 20.81957513 122.39005966 20.81975794 121.68533325 20.81994629 C121.00049991 20.82012684 120.31566657 20.82030739 119.6100807 20.82049341 C108.51053627 20.8240359 97.41118575 20.85106279 86.31170858 20.88844418 C74.91765734 20.92651081 63.52373371 20.94544891 52.12960613 20.94619232 C45.73150536 20.94698678 39.3336547 20.95580302 32.93561172 20.98418999 C26.91912675 21.01028622 20.90310076 21.01262286 14.88658524 20.99653435 C12.67624413 20.99471317 10.46587714 21.00147049 8.25559235 21.01735306 C5.24196916 21.0376909 2.22997048 21.02733373 -0.78363037 21.00914001 C-2.10109168 21.02893997 -2.10109168 21.02893997 -3.44516838 21.04913992 C-7.79228115 20.98903969 -9.56312658 20.80408315 -13.11595345 18.0747385 C-15.60179809 14.71041374 -16.09640503 12.56471006 -16.09640503 8.39440918 C-12.69284832 0.51248838 -7.79601869 -0.04766695 0 0 Z " fill="#000000" transform="translate(127.09640502929688,143.6055908203125)"/>
<path d="M0 0 C1.10389887 -0.01169993 1.10389887 -0.01169993 2.23009872 -0.02363622 C4.68549046 -0.04351168 7.13932453 -0.02781061 9.59472656 -0.01205444 C11.35926211 -0.01883259 13.12379057 -0.02773684 14.88830566 -0.03860474 C19.67350133 -0.06138125 24.45815744 -0.05256856 29.24336243 -0.03670931 C34.25340214 -0.0240418 39.26339596 -0.03579279 44.2734375 -0.04364014 C52.68660773 -0.05273421 61.09955842 -0.04075511 69.51269531 -0.01693726 C79.23654142 0.01027353 88.95986334 0.0014592 98.68369675 -0.02606928 C107.03548034 -0.04876622 115.38710621 -0.05195756 123.73891068 -0.03887594 C128.72572674 -0.03108466 133.71229649 -0.030031 138.69909668 -0.04655838 C143.38771578 -0.06101236 148.0756597 -0.05096452 152.76420593 -0.0220871 C154.48389058 -0.01548123 156.20363214 -0.01736546 157.92329407 -0.02840042 C160.27319483 -0.04208824 162.62093939 -0.02490452 164.97070312 0 C166.28476135 0.00188513 167.59881958 0.00377026 168.95269775 0.00571251 C173.59903993 0.83327874 175.20081067 2.29565347 178.48535156 5.63491821 C179.94297731 9.57908199 179.57355008 11.35639659 178.29785156 15.38491821 C176.3766169 18.82989071 176.03663691 19.40175282 172.48535156 20.63491821 C169.1960001 20.88939381 169.1960001 20.88939381 165.20448303 20.89561462 C164.10208909 20.90135294 164.10208909 20.90135294 162.97742456 20.90720719 C160.51392976 20.91752891 158.05066839 20.91354666 155.5871582 20.90957642 C153.82130213 20.91392334 152.05544794 20.91910643 150.28959656 20.92506409 C145.49210883 20.93846721 140.69469982 20.93903131 135.89719701 20.93650079 C131.89359731 20.93543199 127.8900136 20.94031208 123.88641733 20.94510621 C114.44225111 20.95620588 104.99812467 20.95663617 95.55395508 20.95059204 C85.80753197 20.94455044 76.06125316 20.95686696 66.31485468 20.97816211 C57.94957529 20.9957683 49.58434187 21.00178103 41.21904463 20.99852437 C36.22165883 20.99670984 31.22437596 20.99936457 26.22700691 21.01323891 C21.52792044 21.02579669 16.82905921 21.0238926 12.12997627 21.01082802 C10.40502344 21.00845823 8.68005486 21.01121128 6.95512009 21.01945114 C4.60088537 21.0298865 2.24741092 21.02184431 -0.10679626 21.00914001 C-1.42437392 21.00930776 -2.74195158 21.0094755 -4.09945583 21.00964832 C-7.74378104 20.60977677 -9.62006288 19.83997983 -12.51464844 17.63491821 C-14.36652404 14.60457631 -14.51464844 12.70287921 -14.51464844 9.13491821 C-12.3779323 1.65641175 -7.20917909 0.01034218 0 0 Z " fill="#000000" transform="translate(125.5146484375,95.36508178710938)"/>
</svg>
